<svg width="99" height="64" viewBox="0 0 99 64" fill="none" xmlns="http://www.w3.org/2000/svg">
<g clip-path="url(#clip0_164_259)">
<path d="M74.41 0.0700684H0V38.2501H41.32V24.7801H50.15C53.89 24.7801 57.79 26.7301 57.79 31.5201V38.2601H98.21C98.21 28.0801 93.27 22.6901 82.34 20.2601C86.53 19.8101 90.57 19.6601 93.72 17.1201C96.87 14.5801 98.66 8.61007 93 3.82007C88.93 0.520068 82.49 0.0700684 74.41 0.0700684ZM53.15 15.4901H41.15V9.81007H53C54.3982 9.72041 55.7812 10.1435 56.89 11.0001C57.3206 11.4394 57.5618 12.03 57.5618 12.6451C57.5618 13.2602 57.3206 13.8508 56.89 14.2901C55.8513 15.1694 54.5064 15.601 53.15 15.4901" fill="black"/>
<path d="M98.21 41.3899H0V63.5499H98.21V41.3899Z" fill="black"/>
<path d="M85.6299 57.71C86.2644 57.7262 86.8957 57.6151 87.4866 57.3833C88.0774 57.1514 88.6158 56.8035 89.0699 56.36C89.5346 55.914 89.9063 55.3804 90.1638 54.79C90.4212 54.1996 90.5593 53.564 90.5699 52.92C90.5513 51.5304 90.0166 50.1974 89.0699 49.18C88.6386 48.6966 88.1079 48.3123 87.5141 48.0534C86.9203 47.7945 86.2775 47.6671 85.6299 47.68C84.3356 47.7305 83.1077 48.266 82.1899 49.18C81.7252 49.626 81.3534 50.1596 81.096 50.7501C80.8385 51.3405 80.7005 51.976 80.6899 52.62C80.7085 54.0096 81.2431 55.3427 82.1899 56.36C82.644 56.8035 83.1824 57.1514 83.7732 57.3833C84.3641 57.6151 84.9954 57.7262 85.6299 57.71V57.71ZM93.7099 52.62C93.7289 53.7455 93.525 54.8637 93.1099 55.91C92.7398 56.8638 92.1783 57.7316 91.4599 58.46C90.687 59.227 89.7737 59.8381 88.7699 60.26C87.7593 60.6167 86.7008 60.819 85.6299 60.86C84.7148 60.8563 83.8064 60.7043 82.9399 60.41C82.0643 60.1101 81.2509 59.6526 80.5399 59.06C79.5553 58.3255 78.7797 57.3465 78.2899 56.22C77.8128 55.1349 77.5578 53.9652 77.5399 52.78C77.5213 51.7032 77.7255 50.6341 78.1399 49.64C78.5082 48.6481 79.1286 47.7692 79.9399 47.09C81.0939 45.9336 82.5649 45.1453 84.1669 44.8249C85.7689 44.5045 87.4299 44.6664 88.9399 45.29C90.8704 46.0784 92.4241 47.5784 93.2799 49.48C93.5756 50.5006 93.7271 51.5575 93.7299 52.62H93.7099ZM63.9299 60.26V44.84H68.1199C69.0739 44.8499 70.0248 44.9504 70.9599 45.14C71.8179 45.292 72.6057 45.7121 73.2099 46.34C74.1403 46.9706 74.8694 47.8559 75.3099 48.89C75.8357 50.0185 76.1411 51.237 76.2099 52.48C76.1416 53.7713 75.8366 55.039 75.3099 56.22C74.8316 57.2696 74.1121 58.1913 73.2099 58.91C72.5553 59.3313 71.8496 59.6674 71.1099 59.91C70.1718 60.0787 69.2226 60.179 68.2699 60.21L63.9299 60.26ZM67.0699 57.42H68.8699C69.9242 57.3492 70.9242 56.9266 71.7099 56.22C72.6737 55.2136 73.2112 53.8735 73.2099 52.48C73.2125 51.8117 73.081 51.1497 72.8234 50.5331C72.5658 49.9165 72.1871 49.3578 71.7099 48.89C71.3455 48.5041 70.9049 48.1982 70.416 47.9916C69.9271 47.785 69.4006 47.6823 68.8699 47.69H67.0699V57.42ZM35.4799 60.26L41.6199 44.69H44.7599L50.5999 60.26H47.3099L45.9999 57.11H40.1199L38.9199 60.25L35.4799 60.26ZM45.2099 54.72L43.1099 48.88L40.9999 54.72H45.2099ZM34.2799 49C33.7255 48.4622 33.0598 48.0526 32.3299 47.8C31.59 47.4218 30.7565 47.2655 29.9299 47.35C28.9238 47.4361 27.9761 47.8589 27.2399 48.55C26.6745 49.0281 26.2205 49.6239 25.9095 50.2959C25.5986 50.9678 25.4383 51.6996 25.4399 52.44C25.4626 53.6364 25.8888 54.7901 26.6493 55.714C27.4098 56.6379 28.4601 57.2778 29.6299 57.53C30.4321 57.6353 31.2471 57.5844 32.0299 57.38C32.8133 57.0753 33.5275 56.6162 34.1299 56.03V59.47C33.4312 59.8534 32.6689 60.1075 31.8799 60.22C31.0963 60.4193 30.2822 60.4702 29.4799 60.37C27.4607 60.203 25.58 59.2761 24.2177 57.7764C22.8553 56.2767 22.1127 54.3159 22.1399 52.29C22.0906 51.2006 22.2799 50.1135 22.6945 49.1048C23.109 48.096 23.7388 47.19 24.5399 46.45C25.8349 45.0912 27.6047 44.2851 29.4799 44.2C30.2921 44.0666 31.1255 44.1708 31.8799 44.5C32.6833 44.6439 33.4489 44.9501 34.1299 45.4L34.2799 49ZM17.8199 44.84H20.9999V60.41H17.8199V44.84ZM8.53989 51.84H8.99989C9.82699 51.936 10.6637 51.7791 11.3999 51.39C11.6535 51.1349 11.8511 50.8297 11.9802 50.494C12.1094 50.1583 12.1671 49.7993 12.1499 49.44C12.1695 49.1246 12.1114 48.8092 11.9806 48.5215C11.8499 48.2338 11.6504 47.9826 11.3999 47.79C10.6479 47.4511 9.82176 47.3099 8.99989 47.38H8.52989L8.53989 51.84ZM54.6499 51.84H55.0999C55.927 51.936 56.7637 51.7791 57.4999 51.39C57.7535 51.1349 57.9511 50.8297 58.0802 50.494C58.2094 50.1583 58.2671 49.7993 58.2499 49.44C58.2695 49.1246 58.2114 48.8092 58.0806 48.5215C57.9499 48.2338 57.7504 47.9826 57.4999 47.79C56.7515 47.4374 55.9252 47.2824 55.0999 47.34H54.6499V51.84ZM16.7699 60.26H12.8699L8.52989 53.67V60.26H5.38989V44.84H9.99989C11.4018 44.7798 12.7912 45.1271 13.9999 45.84C14.4634 46.2472 14.8264 46.756 15.0606 47.3267C15.2948 47.8975 15.3938 48.5147 15.3499 49.13C15.4529 50.136 15.2133 51.1472 14.6699 52C13.9492 52.8985 12.9501 53.5318 11.8299 53.8L16.7699 60.26ZM62.8799 60.26H58.9999L54.6599 53.67V60.26H51.4999V44.84H56.1399C57.5418 44.7798 58.9312 45.1271 60.1399 45.84C60.6034 46.2472 60.9664 46.756 61.2006 47.3267C61.4348 47.8975 61.5338 48.5147 61.4899 49.13C61.584 50.1394 61.3338 51.1509 60.7799 52C60.0592 52.8985 59.0601 53.5318 57.9399 53.8L62.8799 60.26Z" fill="#FFF1E0"/>
<path d="M8.37999 0.0700684H5.23999V38.2501H8.37999V0.0700684Z" fill="black"/>
</g>
<defs>
<clipPath id="clip0_164_259">
<rect width="98.21" height="63.63" fill="white"/>
</clipPath>
</defs>
</svg>
