<?xml version="1.0" encoding="utf-8"?>
<!-- Generator: Adobe Illustrator 24.1.2, SVG Export Plug-In . SVG Version: 6.00 Build 0)  -->
<svg version="1.1" id="Layer_1" xmlns="http://www.w3.org/2000/svg" xmlns:xlink="http://www.w3.org/1999/xlink" x="0px" y="0px"
	 viewBox="0 0 150 17" style="enable-background:new 0 0 150 17;" xml:space="preserve">
<g>
	<path d="M24.4,0h-4.7L13,17h4.7l1.2-2.9h6.2l1.1,2.9H31L24.4,0z M20.2,10.8L22,5.3h0l1.8,5.4C23.9,10.8,20.2,10.8,20.2,10.8z
		 M6.8,0H0v17h4.6v-5.8H7c3.9,0,6-1.7,6-5.6C13,1.7,10.5,0,6.8,0z M5.2,7.9H4.6V3.7l0.6,0c1.7,0,3.2,0,3.2,2.1
		C8.4,7.9,6.8,7.9,5.2,7.9L5.2,7.9z M94.7,10.4l4.7,0V6.6h-4.7V3.7h6.3V0H90v17h11v-4.1h-6.3V10.4z M54,4.6h4.2l0,12.4h4.6V4.6H67V0
		H54V4.6z M81.2,6.6h-6.5V0H70v17h4.8v-6.6h6.5V17H86V0h-4.8V6.6z M111.5,4.6c2.2,0,3.9,1.8,3.9,3.9s-1.8,3.9-3.9,3.9
		c-2.2,0-3.9-1.8-3.9-3.9C107.6,6.3,109.3,4.6,111.5,4.6z M111.5,0c-4.7,0-8.5,3.8-8.5,8.5s3.8,8.5,8.5,8.5s8.5-3.8,8.5-8.5
		S116.2,0,111.5,0z M135.5,9.5L128.2,0H124v17h4.5l0-9.5l6.9,9.5h4.6V0h-4.5L135.5,9.5z M45.5,9.5L38.2,0H34v17h4.5l0-9.5l6.9,9.5
		H50V0h-4.5L45.5,9.5z M143,3.5c0-0.5,0.1-0.9,0.3-1.4c0.4-0.8,1-1.5,1.9-1.9c0.9-0.4,1.8-0.4,2.7,0c0.8,0.4,1.5,1,1.9,1.9
		c0.4,0.9,0.4,1.9,0,2.7c-0.4,0.8-1,1.5-1.8,1.9c-0.9,0.4-1.8,0.4-2.7,0c-0.8-0.4-1.5-1-1.9-1.9C143.1,4.4,143,4,143,3.5z
		 M143.6,3.5c0,0.4,0.1,0.8,0.2,1.1c0.3,0.7,0.8,1.2,1.5,1.5c0.7,0.3,1.5,0.3,2.2,0c0.7-0.3,1.2-0.8,1.5-1.5c0.3-0.7,0.3-1.5,0-2.2
		c-0.3-0.7-0.8-1.2-1.5-1.5c-0.7-0.3-1.5-0.3-2.2,0c-0.7,0.3-1.2,0.8-1.5,1.5C143.7,2.7,143.6,3.1,143.6,3.5z M145.2,1.5h1.5
		c0.4,0,0.8,0.1,1.1,0.3c0.2,0.2,0.4,0.5,0.3,0.9c0,0.3-0.1,0.6-0.3,0.8c-0.2,0.2-0.4,0.3-0.7,0.3l1,1.7h-0.8l-1-1.6h-0.5v1.6h-0.7
		L145.2,1.5L145.2,1.5L145.2,1.5z M145.9,3.2h0.9c0.1,0,0.2,0,0.3-0.1c0.1,0,0.2-0.1,0.2-0.2c0.1-0.2,0.1-0.4,0-0.6
		c-0.1-0.1-0.1-0.1-0.2-0.2c-0.1,0-0.2-0.1-0.3-0.1h-0.9C145.9,2.1,145.9,3.2,145.9,3.2z"/>
</g>
</svg>
