<svg width="577" height="108" viewBox="0 0 577 108" fill="none" xmlns="http://www.w3.org/2000/svg">
<g clip-path="url(#clip0_164_252)">
<path d="M118.3 23.8V84.2H104.2V77.8C101 83 95.1 86 86.5 86C72.2 86 65.1 78.6 65.1 66.8V23.8H80.5V62.7C80.5 69 83.9 72.7 90.5 72.7C98.2 72.7 102.9 68.3 102.9 60.2V23.8H118.3ZM218.3 42V84.2H202.9V46.6C202.9 39.4 200 35 193.3 35C186.6 35 182.7 40 182.7 47V84.2H167.3V46.6C167.3 38.9 164.1 35 157.7 35C150.9 35 147.1 40 147.1 47V84.2H131.7V23.8H146V30.5C149.5 24.7 155.3 21.8 163.2 21.8C170.9 21.8 176.7 25 180 30.7C184.1 24.8 190.2 21.8 198.1 21.8C211 21.8 218.3 29.5 218.3 42ZM341.9 84.2H326.5V0.2H341.9V84.2ZM508.9 84.2H493.5V23.8H508.9V84.2ZM493.2 14.7H509.1V0H493.2V14.7ZM566.6 63.6C560.3 70.3 556 72.9 550.2 72.9C543.3 72.9 538.4 68.9 536.2 62.7V45.1C538.5 38.8 543.4 34.8 550.4 34.8C555.5 34.8 559.6 36.6 566.1 42.7L575.7 33.2C568 24.8 560.5 21.7 550.4 21.7C536.3 21.7 525.4 29.1 521.1 41.5V66.3C525.3 78.7 536 86 550 86C560.9 86 568.4 82.4 576.8 72L566.6 63.6ZM31.7 47C27.5 46.1 24.5 45.3 22.8 44.9C20.7 44.3 19.1 43.5 18.3 42.4V37.8C19.7 35.6 23.1 34.2 27.8 34.2C34.3 34.2 38.8 35.7 45.9 41.3L54.2 31.3C45.8 24.3 38.6 21.8 28.2 21.8C16.2 21.8 7.9 26.7 4.6 33.7V48.9C7.2 54 13.2 56.9 25.2 59.5C29.5 60.5 32.4 61.2 34.1 61.5C36.3 62.2 38.3 63.1 39.4 64.7V70C37.9 72.4 34.3 73.7 29.6 73.7C26.2 73.8 22.9 73.1 19.8 71.8C16.8 70.6 13.3 68.3 8.9 64.7L0 74.6C9.6 83.1 17.7 86 29.2 86C41.5 86 50.2 81.3 53.5 73.8V58.5C50.7 52.8 44 49.8 31.7 47ZM258.7 21.7C244.8 21.7 233.9 29.2 229.4 41.2V66.6C233.8 78.6 244.8 86.1 258.7 86.1C272.6 86.1 283.4 78.6 287.8 66.7V41.1C283.3 29.2 272.4 21.7 258.7 21.7ZM272.9 62.8C270.5 69.2 265.4 73 258.6 73C251.9 73 246.6 69.2 244.2 62.8V45C246.6 38.6 251.7 34.7 258.6 34.7C265.4 34.7 270.4 38.6 272.8 45L272.9 62.8ZM383.1 21.7C369.2 21.7 358.3 29.2 353.8 41.2V66.6C358.3 78.6 369.2 86.1 383.1 86.1C397 86.1 407.8 78.6 412.2 66.7V41.1C407.8 29.2 396.9 21.7 383.1 21.7ZM397.3 62.8C394.9 69.2 389.8 73 383.1 73C376.4 73 371.1 69.2 368.7 62.8V45C371.1 38.6 376.2 34.7 383.1 34.7C390 34.7 394.9 38.6 397.3 45V62.8ZM465.8 23.8V30.5C461.9 24.7 455.8 21.8 447.4 21.8C436 21.8 426.8 28.8 422.8 39.9V64.8C426.7 75.9 435.9 82.8 447.4 82.8C455.1 82.8 460.9 80.2 465 75.1V79.9C465 89.9 459.2 94.6 450.2 94.6C443.5 94.6 438 92.6 429.2 87.4L421.7 98.5C430.2 104.2 440.2 107.3 450.4 107.4C467.4 107.4 479.9 98.3 479.9 81.3V23.8H465.8ZM463.9 60.5C461.6 66.2 456.8 69.8 450.8 69.8C444.8 69.8 440 66.3 437.7 60.5V44C440 38.3 444.7 34.8 450.8 34.8C456.9 34.8 461.6 38.3 463.9 44V60.5Z" fill="black"/>
</g>
<defs>
<clipPath id="clip0_164_252">
<rect width="577" height="107.3" fill="white"/>
</clipPath>
</defs>
</svg>
