<svg width="455" height="280" viewBox="0 0 455 280" fill="none" xmlns="http://www.w3.org/2000/svg">
<path d="M398.717 23.3829C386.788 45.8714 394.26 73.7553 415.835 87.2662C393.346 75.3369 365.462 82.8084 351.952 104.384C363.881 81.8953 356.409 54.0113 334.834 40.5004C357.323 52.4298 385.207 44.9583 398.717 23.3829Z" fill="black"/>
<path d="M342.194 235.562H348.959V267.53H342.194V264.081H341.885C340.087 266.38 337.036 267.53 332.732 267.53C331.465 267.53 330.3 267.397 329.239 267.132C328.178 266.867 327.264 266.513 326.498 266.071C325.761 265.599 325.083 265.083 324.464 264.523C323.874 263.934 323.388 263.285 323.005 262.578C322.651 261.87 322.342 261.192 322.076 260.544C321.811 259.866 321.605 259.173 321.457 258.466C321.339 257.758 321.251 257.154 321.192 256.653C321.163 256.122 321.148 255.606 321.148 255.105C321.148 254.516 321.177 253.912 321.236 253.293C321.295 252.674 321.413 251.937 321.59 251.082C321.796 250.227 322.062 249.431 322.386 248.694C322.71 247.957 323.167 247.22 323.757 246.483C324.376 245.717 325.068 245.069 325.835 244.538C326.63 244.007 327.618 243.58 328.797 243.256C329.976 242.902 331.288 242.725 332.732 242.725C336.947 242.725 339.983 243.934 341.84 246.351H342.194V235.562ZM334.678 261.738C336.092 261.738 337.272 261.575 338.215 261.251C339.158 260.927 339.88 260.455 340.381 259.836C340.882 259.188 341.221 258.495 341.398 257.758C341.605 257.021 341.708 256.137 341.708 255.105C341.708 254.192 341.605 253.381 341.398 252.674C341.192 251.937 340.853 251.244 340.381 250.595C339.91 249.917 339.188 249.402 338.215 249.048C337.272 248.665 336.092 248.473 334.678 248.473C333.469 248.473 332.408 248.65 331.494 249.004C330.58 249.357 329.873 249.785 329.372 250.286C328.9 250.758 328.517 251.318 328.222 251.966C327.927 252.615 327.736 253.189 327.647 253.69C327.588 254.162 327.559 254.634 327.559 255.105C327.559 255.577 327.588 256.049 327.647 256.52C327.736 256.992 327.927 257.567 328.222 258.245C328.517 258.893 328.9 259.468 329.372 259.969C329.873 260.441 330.58 260.853 331.494 261.207C332.408 261.561 333.469 261.738 334.678 261.738Z" fill="black"/>
<path d="M358.006 267.53H351.33V242.858H358.006V267.53ZM358.006 241.089H351.33V235.12H358.006V241.089Z" fill="black"/>
<path d="M381.271 242.99H388.036V265.142C388.036 265.997 388.006 266.793 387.947 267.53C387.888 268.296 387.756 269.18 387.549 270.183C387.343 271.214 387.048 272.128 386.665 272.924C386.311 273.749 385.796 274.575 385.118 275.4C384.469 276.255 383.688 276.962 382.774 277.522C381.86 278.082 380.711 278.539 379.325 278.893C377.969 279.276 376.437 279.468 374.727 279.468C372.605 279.468 370.718 279.247 369.068 278.805C367.446 278.362 366.164 277.802 365.221 277.124C364.278 276.446 363.511 275.651 362.922 274.737C362.332 273.852 361.934 273.012 361.728 272.217C361.551 271.421 361.463 270.595 361.463 269.74H368.139C368.168 270.153 368.286 270.551 368.493 270.934C368.699 271.347 369.023 271.76 369.465 272.172C369.937 272.614 370.615 272.968 371.499 273.233C372.413 273.528 373.474 273.676 374.683 273.676C376.894 273.676 378.544 272.998 379.635 271.642C380.726 270.315 381.271 268.488 381.271 266.159V264.346H380.961C379.163 266.645 376.112 267.795 371.809 267.795C370.364 267.795 369.053 267.633 367.874 267.309C366.695 266.955 365.707 266.513 364.911 265.982C364.145 265.422 363.467 264.759 362.877 263.993C362.288 263.197 361.831 262.43 361.507 261.693C361.183 260.956 360.917 260.175 360.711 259.35C360.505 258.495 360.372 257.773 360.313 257.183C360.254 256.564 360.225 255.975 360.225 255.415C360.225 254.796 360.254 254.177 360.313 253.558C360.372 252.939 360.49 252.217 360.667 251.391C360.873 250.536 361.138 249.741 361.463 249.004C361.787 248.267 362.244 247.515 362.833 246.749C363.452 245.982 364.145 245.334 364.911 244.803C365.707 244.273 366.695 243.845 367.874 243.521C369.053 243.167 370.364 242.99 371.809 242.99C376.024 242.99 379.06 244.199 380.917 246.616H381.271V242.99ZM373.754 262.047C375.169 262.047 376.348 261.885 377.292 261.561C378.235 261.207 378.957 260.721 379.458 260.102C379.959 259.453 380.298 258.76 380.475 258.024C380.681 257.287 380.784 256.417 380.784 255.415C380.784 254.472 380.681 253.646 380.475 252.939C380.269 252.202 379.93 251.509 379.458 250.861C378.986 250.183 378.264 249.667 377.292 249.313C376.348 248.959 375.169 248.783 373.754 248.783C372.546 248.783 371.485 248.959 370.571 249.313C369.657 249.637 368.95 250.05 368.449 250.551C367.977 251.023 367.594 251.598 367.299 252.276C367.004 252.924 366.813 253.484 366.724 253.956C366.665 254.427 366.636 254.914 366.636 255.415C366.636 255.857 366.665 256.314 366.724 256.785C366.813 257.257 367.004 257.832 367.299 258.51C367.594 259.158 367.977 259.733 368.449 260.234C368.95 260.706 369.657 261.133 370.571 261.517C371.485 261.87 372.546 262.047 373.754 262.047Z" fill="black"/>
<path d="M397.083 267.53H390.406V242.858H397.083V267.53ZM397.083 241.089H390.406V235.12H397.083V241.089Z" fill="black"/>
<path d="M409.079 248.473V257.272V257.758C409.079 258.849 409.256 259.601 409.61 260.013C409.963 260.426 410.597 260.662 411.511 260.721C412.425 260.78 413.677 260.75 415.269 260.632C416.065 260.573 416.684 260.529 417.126 260.5V267.088C416.242 267.382 413.559 267.53 409.079 267.53C408.342 267.53 407.664 267.471 407.045 267.353C406.456 267.205 405.94 267.029 405.498 266.822C405.085 266.616 404.702 266.336 404.348 265.982C403.994 265.599 403.714 265.245 403.508 264.921C403.302 264.597 403.11 264.184 402.933 263.683C402.786 263.152 402.668 262.725 402.579 262.401C402.52 262.047 402.461 261.575 402.403 260.986C402.373 260.396 402.358 259.954 402.358 259.659C402.358 259.365 402.358 258.937 402.358 258.377V248.473H399.042V242.769H402.358V235.607H409.079V242.769H417.126V248.473H409.079Z" fill="black"/>
<path d="M438.257 246.351H438.523V242.725H445.243V267.53H438.523V264.081H438.302C436.504 266.38 433.453 267.53 429.149 267.53C427.882 267.53 426.717 267.397 425.656 267.132C424.595 266.867 423.681 266.513 422.915 266.071C422.178 265.599 421.5 265.083 420.881 264.523C420.291 263.934 419.805 263.285 419.422 262.578C419.068 261.87 418.759 261.192 418.493 260.544C418.228 259.866 418.022 259.173 417.874 258.466C417.756 257.758 417.668 257.154 417.609 256.653C417.58 256.122 417.565 255.606 417.565 255.105C417.565 254.516 417.594 253.912 417.653 253.293C417.712 252.674 417.83 251.937 418.007 251.082C418.213 250.227 418.479 249.431 418.803 248.694C419.127 247.957 419.584 247.22 420.173 246.483C420.792 245.717 421.485 245.069 422.252 244.538C423.047 244.007 424.035 243.58 425.214 243.256C426.393 242.902 427.705 242.725 429.149 242.725C433.364 242.725 436.4 243.934 438.257 246.351ZM431.095 261.738C432.509 261.738 433.689 261.575 434.632 261.251C435.575 260.927 436.297 260.455 436.798 259.836C437.299 259.188 437.638 258.495 437.815 257.758C438.022 257.021 438.125 256.137 438.125 255.105C438.125 254.192 438.022 253.381 437.815 252.674C437.609 251.937 437.27 251.244 436.798 250.595C436.327 249.917 435.604 249.402 434.632 249.048C433.689 248.665 432.509 248.473 431.095 248.473C429.886 248.473 428.825 248.65 427.911 249.004C426.997 249.357 426.29 249.785 425.789 250.286C425.317 250.758 424.934 251.318 424.639 251.966C424.344 252.615 424.153 253.189 424.064 253.69C424.005 254.162 423.976 254.634 423.976 255.105C423.976 255.577 424.005 256.049 424.064 256.52C424.153 256.992 424.344 257.567 424.639 258.245C424.934 258.893 425.317 259.468 425.789 259.969C426.29 260.441 426.997 260.853 427.911 261.207C428.825 261.561 429.886 261.738 431.095 261.738Z" fill="black"/>
<path d="M454.295 267.53H447.618V235.695H454.295V267.53Z" fill="black"/>
<rect x="49.5624" y="127.543" width="24.6583" height="44.215" fill="black"/>
<rect x="162.651" y="145.399" width="24.6583" height="26.3589" fill="black"/>
<rect x="266.386" y="145.399" width="24.6583" height="26.3589" fill="black"/>
<rect x="376.073" y="145.399" width="24.6583" height="26.3589" fill="black"/>
<path fill-rule="evenodd" clip-rule="evenodd" d="M86.8002 135.844C86.1142 133.393 85.0851 131.139 83.713 129.081C82.3409 127.023 80.6747 125.161 78.7145 123.494C76.7544 121.73 74.2552 120.358 71.2169 119.378C68.2767 118.398 64.9444 117.908 61.2201 117.908H39.3152V179.947H61.2201C65.6304 179.947 69.5018 179.212 72.8341 177.742C76.2643 176.272 78.9596 174.459 80.9197 172.303C82.8799 170.146 84.448 167.598 85.6241 164.658C86.8982 161.718 87.7313 159.022 88.1233 156.572C88.6134 154.024 88.8584 151.476 88.8584 148.928C88.8584 146.869 88.7114 144.811 88.4174 142.753C88.1233 140.597 87.5843 138.294 86.8002 135.844ZM55.3947 163.868H61.2201C63.857 163.868 65.4401 163.429 66.3437 163.031L66.4217 162.996L66.5 162.963C68.3858 162.154 68.9815 161.531 69.0219 161.486C69.5827 160.87 70.1698 159.999 70.6947 158.686L70.7795 158.474L70.8703 158.265C71.7566 156.219 72.1171 154.836 72.2458 154.032L72.2856 153.783L72.3332 153.536C72.6343 151.97 72.7789 150.438 72.7789 148.928C72.7789 147.638 72.687 146.34 72.4995 145.027L72.4922 144.976L72.4853 144.926C72.3378 143.844 72.0349 142.46 71.4857 140.744L71.3958 140.463L71.3163 140.179C71.0732 139.311 70.7409 138.611 70.334 138C69.8233 137.234 69.1683 136.483 68.3007 135.746L68.1272 135.599L67.9583 135.447C67.925 135.418 67.4984 135.074 66.2805 134.681L66.2062 134.657L66.1321 134.632C65.1237 134.296 63.5537 133.987 61.2201 133.987H55.3947V163.868ZM0.889893 216.461V81.3938H61.2201C68.3518 81.3938 75.1989 82.1346 81.6584 83.7662C87.7281 85.206 93.4841 87.3153 98.5996 90.3589C103.435 93.1428 107.726 96.643 111.402 100.835C114.808 104.524 117.727 108.55 120.003 112.935C122.151 116.981 123.826 121.291 125.08 125.806C126.26 130.055 127.1 134.262 127.501 138.385C127.847 141.864 128.019 145.379 128.019 148.928C128.019 154.254 127.613 159.481 126.781 164.595C125.806 170.585 123.796 176.53 121.056 182.369C118.034 188.806 114.013 194.556 108.969 199.483C103.375 205.048 96.3108 209.027 88.6238 211.909C80.1855 215.074 70.9543 216.461 61.2201 216.461H0.889893ZM97.6791 188.033C101.305 184.505 104.246 180.339 106.5 175.537C108.754 170.734 110.224 166.226 110.91 162.012C111.596 157.797 111.939 153.436 111.939 148.928C111.939 145.889 111.792 142.9 111.498 139.96C111.204 136.922 110.567 133.638 109.587 130.11C108.607 126.582 107.333 123.347 105.765 120.407C104.197 117.369 102.09 114.429 99.4433 111.586C96.8951 108.646 93.9058 106.196 90.4755 104.236C87.0452 102.178 82.8309 100.561 77.8325 99.3845C72.834 98.1104 67.2966 97.4733 61.2201 97.4733H16.9694V200.382H61.2201C69.4528 200.382 76.7054 199.206 82.9779 196.854C89.2504 194.501 94.1508 191.561 97.6791 188.033Z" fill="black"/>
<path fill-rule="evenodd" clip-rule="evenodd" d="M131.843 177.007C129.393 171.519 128.168 165.295 128.168 158.336C128.168 149.222 130.275 141.43 134.489 134.961C138.802 128.493 144.339 123.789 151.102 120.848C157.864 117.81 165.558 116.291 174.183 116.291C180.553 116.291 186.483 117.173 191.971 118.937C197.46 120.701 202.311 123.249 206.525 126.582C210.74 129.914 214.072 134.324 216.522 139.813C218.972 145.203 220.197 151.378 220.197 158.336C220.197 165.393 218.972 171.666 216.522 177.154C214.072 182.544 210.74 186.906 206.525 190.238C202.311 193.57 197.46 196.119 191.971 197.883C186.483 199.549 180.553 200.382 174.183 200.382C167.812 200.382 161.883 199.549 156.394 197.883C150.906 196.119 146.054 193.57 141.84 190.238C137.626 186.808 134.293 182.397 131.843 177.007ZM231.183 133.208C234.719 141.009 236.277 149.499 236.277 158.336C236.277 167.263 234.722 175.83 231.205 183.709L231.183 183.758L231.16 183.808C227.761 191.286 222.918 197.775 216.498 202.851C210.668 207.461 204.077 210.881 196.892 213.191L196.767 213.231L196.642 213.269C189.482 215.442 181.963 216.461 174.183 216.461C166.403 216.461 158.883 215.442 151.723 213.269L151.598 213.231L151.474 213.191C144.288 210.881 137.698 207.461 131.867 202.851L131.778 202.781L131.689 202.709C125.382 197.575 120.588 191.104 117.205 183.661L117.182 183.611L117.16 183.562C113.655 175.71 112.088 167.2 112.088 158.336C112.088 146.678 114.813 135.706 121.017 126.184L121.063 126.113L121.11 126.042C127.021 117.176 134.887 110.385 144.6 106.142C153.722 102.06 163.688 100.211 174.183 100.211C182.049 100.211 189.655 101.303 196.892 103.629C204.077 105.939 210.668 109.358 216.498 113.969C222.966 119.083 227.803 125.656 231.183 133.208ZM195.058 146.134C197.117 149.369 198.146 153.436 198.146 158.336C198.146 165.589 195.989 171.028 191.677 174.655C187.365 178.183 181.533 179.947 174.183 179.947C166.734 179.947 160.853 178.232 156.541 174.802C152.327 171.273 150.22 165.834 150.22 158.483C150.22 151.035 152.327 145.546 156.541 142.018C160.853 138.49 166.734 136.726 174.183 136.726C178.985 136.726 183.15 137.461 186.679 138.931C190.207 140.401 193 142.802 195.058 146.134ZM166.869 162.443C167.732 162.992 169.774 163.868 174.183 163.868C178.765 163.868 180.662 162.844 181.386 162.295C181.431 162.246 181.494 162.149 181.581 161.93C181.756 161.489 182.066 160.403 182.066 158.336C182.066 155.666 181.515 154.801 181.493 154.768L181.493 154.767L181.435 154.676L181.378 154.584C181.041 154.039 180.835 153.916 180.494 153.773C179.358 153.3 177.387 152.805 174.183 152.805C169.621 152.805 167.667 153.78 166.907 154.323C166.884 154.367 166.852 154.438 166.811 154.544C166.624 155.031 166.299 156.226 166.299 158.483C166.299 160.668 166.617 161.813 166.794 162.268C166.823 162.344 166.849 162.402 166.869 162.443ZM166.944 154.259C166.945 154.26 166.94 154.267 166.931 154.278C166.94 154.264 166.944 154.258 166.944 154.259Z" fill="black"/>
<path fill-rule="evenodd" clip-rule="evenodd" d="M349.735 177.007C347.285 171.519 346.059 165.295 346.059 158.336C346.059 149.222 348.167 141.43 352.381 134.961C356.693 128.493 362.231 123.789 368.993 120.848C375.756 117.81 383.45 116.291 392.074 116.291C398.445 116.291 404.374 117.173 409.863 118.937C415.351 120.701 420.203 123.249 424.417 126.582C428.631 129.914 431.964 134.324 434.414 139.813C436.864 145.203 438.089 151.378 438.089 158.336C438.089 165.393 436.864 171.666 434.414 177.154C431.964 182.544 428.631 186.906 424.417 190.238C420.203 193.57 415.351 196.119 409.863 197.883C404.374 199.549 398.445 200.382 392.074 200.382C385.704 200.382 379.774 199.549 374.286 197.883C368.797 196.119 363.946 193.57 359.732 190.238C355.517 186.808 352.185 182.397 349.735 177.007ZM449.074 133.208C452.611 141.009 454.169 149.499 454.169 158.336C454.169 167.263 452.614 175.83 449.097 183.709L449.075 183.758L449.052 183.808C445.653 191.286 440.81 197.775 434.39 202.851C428.559 207.461 421.969 210.881 414.783 213.191L414.659 213.231L414.534 213.269C407.374 215.442 399.854 216.461 392.074 216.461C384.294 216.461 376.775 215.442 369.615 213.269L369.49 213.231L369.365 213.191C362.18 210.881 355.589 207.461 349.759 202.851L349.669 202.781L349.581 202.709C343.274 197.575 338.48 191.104 335.097 183.661L335.074 183.611L335.052 183.562C331.547 175.71 329.98 167.2 329.98 158.336C329.98 146.678 332.705 135.706 338.909 126.184L338.955 126.113L339.002 126.042C344.913 117.176 352.779 110.385 362.492 106.142C371.614 102.06 381.58 100.211 392.074 100.211C399.941 100.211 407.547 101.303 414.783 103.629C421.969 105.939 428.559 109.358 434.39 113.969C440.858 119.083 445.695 125.656 449.074 133.208ZM412.95 146.134C415.008 149.369 416.037 153.436 416.037 158.336C416.037 165.589 413.881 171.028 409.569 174.655C405.256 178.183 399.425 179.947 392.074 179.947C384.626 179.947 378.745 178.232 374.433 174.802C370.218 171.273 368.111 165.834 368.111 158.483C368.111 151.035 370.218 145.546 374.433 142.018C378.745 138.49 384.626 136.726 392.074 136.726C396.877 136.726 401.042 137.461 404.57 138.931C408.099 140.401 410.892 142.802 412.95 146.134ZM384.761 162.443C385.624 162.992 387.666 163.868 392.074 163.868C396.657 163.868 398.553 162.844 399.278 162.295C399.322 162.246 399.385 162.149 399.472 161.93C399.647 161.489 399.958 160.403 399.958 158.336C399.958 155.666 399.406 154.801 399.385 154.768L399.384 154.767L399.326 154.676L399.27 154.584C398.933 154.039 398.727 153.916 398.386 153.773C397.25 153.3 395.279 152.805 392.074 152.805C387.512 152.805 385.559 153.78 384.799 154.323C384.776 154.367 384.744 154.438 384.703 154.544C384.516 155.031 384.191 156.226 384.191 158.483C384.191 160.668 384.509 161.813 384.685 162.268C384.715 162.344 384.741 162.402 384.761 162.443ZM384.836 154.259C384.836 154.26 384.832 154.267 384.823 154.278C384.831 154.264 384.836 154.258 384.836 154.259Z" fill="black"/>
<path fill-rule="evenodd" clip-rule="evenodd" d="M290.629 78.0126H345.281V216.461H290.629V215.014C285.682 216.02 280.504 216.461 275.248 216.461C269.922 216.461 264.721 215.905 259.734 214.658C255.083 213.496 250.589 211.827 246.484 209.458L246.163 209.273L245.851 209.074C242.687 207.048 239.718 204.796 236.969 202.309L236.671 202.039L236.387 201.755C233.369 198.738 230.806 195.34 228.767 191.575L228.641 191.343L228.523 191.108C227.189 188.439 225.988 185.816 224.936 183.242L224.889 183.128L224.844 183.013C223.637 179.928 222.693 176.763 222.018 173.524L221.952 173.207L221.899 172.888C221.481 170.378 221.144 168.099 220.908 166.096L220.85 165.604L220.823 165.109C220.709 163.065 220.651 161.052 220.651 159.071C220.651 156.575 220.776 154.057 221.018 151.519C221.286 148.7 221.791 145.641 222.455 142.436L222.508 142.177L222.57 141.92C223.46 138.236 224.634 134.677 226.129 131.279M226.129 131.279C227.857 127.353 230.161 123.718 232.848 120.359L232.872 120.33L232.895 120.301C235.863 116.627 239.281 113.401 243.161 110.715L243.277 110.635L243.395 110.557C247.753 107.651 252.649 105.628 257.725 104.217C263.323 102.559 269.21 101.829 275.248 101.829C280.533 101.829 285.704 102.31 290.629 103.377V78.0126M306.708 129.963H305.532C303.814 127.727 301.792 125.801 299.467 124.187C299.3 124.072 299.132 123.958 298.963 123.845C298.919 123.816 298.875 123.787 298.831 123.758C296.411 122.174 293.677 120.912 290.629 119.971C286.173 118.596 281.046 117.908 275.248 117.908C270.445 117.908 266.084 118.496 262.164 119.672C258.243 120.75 254.96 122.171 252.314 123.936C249.766 125.7 247.462 127.856 245.404 130.404C243.444 132.854 241.925 135.304 240.847 137.755C239.769 140.205 238.887 142.851 238.201 145.693C237.613 148.536 237.221 150.986 237.025 153.044C236.829 155.102 236.731 157.111 236.731 159.071C236.731 160.738 236.78 162.453 236.878 164.217C237.074 165.883 237.368 167.892 237.76 170.244C238.25 172.597 238.936 174.9 239.818 177.154C240.7 179.31 241.729 181.564 242.905 183.917C244.179 186.269 245.796 188.425 247.757 190.385C249.815 192.247 252.069 193.962 254.519 195.531C257.067 197.001 260.106 198.177 263.634 199.059C267.162 199.941 271.033 200.382 275.248 200.382C281.063 200.382 286.19 199.751 290.629 198.488C294.167 197.482 297.268 196.075 299.932 194.267C302.151 192.761 304.067 190.977 305.679 188.915H306.708V200.382H329.201V94.092H306.708V129.963ZM300.681 144.076C301.148 144.719 301.576 145.374 301.965 146.043C302.882 147.618 303.581 149.266 304.062 150.986C304.748 153.338 305.091 156.033 305.091 159.071C305.091 162.502 304.748 165.442 304.062 167.892C303.649 169.612 302.971 171.26 302.027 172.836C301.626 173.504 301.177 174.159 300.681 174.802C299.036 176.834 296.674 178.388 293.596 179.465C293.557 179.479 293.517 179.493 293.477 179.506C293.066 179.648 292.64 179.78 292.201 179.903C289.298 180.717 285.803 181.123 281.716 181.123C277.698 181.123 274.17 180.535 271.131 179.359C268.093 178.183 265.741 176.811 264.075 175.243C262.507 173.577 261.233 171.666 260.253 169.509C259.272 167.255 258.635 165.344 258.341 163.776C258.145 162.208 258.047 160.64 258.047 159.071C258.047 157.503 258.145 155.935 258.341 154.367C258.635 152.701 259.272 150.79 260.253 148.634C261.233 146.477 262.507 144.615 264.075 143.047C265.741 141.381 268.093 139.96 271.131 138.784C274.17 137.608 277.698 137.02 281.716 137.02C285.385 137.02 288.577 137.407 291.292 138.182C292.059 138.401 292.787 138.65 293.477 138.931C293.564 138.962 293.65 138.994 293.736 139.026C296.84 140.199 299.155 141.882 300.681 144.076ZM274.229 156.975C274.16 157.678 274.127 158.377 274.127 159.071C274.127 159.733 274.157 160.397 274.219 161.067C274.239 161.132 274.264 161.21 274.294 161.301C274.426 161.695 274.63 162.24 274.935 162.951C275.057 163.209 275.184 163.432 275.315 163.629C275.644 163.811 276.167 164.066 276.936 164.364C277.747 164.678 279.235 165.044 281.716 165.044C285.325 165.044 287.339 164.613 288.25 164.3C288.302 164.282 288.349 164.265 288.394 164.249C288.413 164.195 288.422 164.159 288.427 164.14L288.497 163.847L288.578 163.557C288.759 162.911 289.012 161.51 289.012 159.071C289.012 157.208 288.798 156.076 288.626 155.488L288.602 155.405L288.578 155.321C288.471 154.938 288.304 154.523 288.025 154.058C288.011 154.053 287.997 154.047 287.982 154.042L287.702 153.94L287.425 153.828C286.803 153.575 285.098 153.099 281.716 153.099C279.235 153.099 277.747 153.465 276.936 153.779C276.133 154.09 275.65 154.346 275.404 154.494C275.378 154.51 275.356 154.524 275.337 154.536C275.221 154.675 275.065 154.904 274.891 155.287C274.594 155.94 274.407 156.43 274.294 156.769C274.267 156.85 274.246 156.918 274.229 156.975Z" fill="black"/>
</svg>
