<svg width="362" height="378" viewBox="0 0 362 378" fill="none" xmlns="http://www.w3.org/2000/svg">
<path fill-rule="evenodd" clip-rule="evenodd" d="M362 197C362 195.986 361.992 194.974 361.975 193.964L360.975 193.98C360.992 194.985 361 195.991 361 197H362ZM361.975 200.036L360.975 200.02C360.942 202.029 360.876 204.031 360.778 206.023L361.777 206.073C361.875 204.069 361.942 202.057 361.975 200.036ZM361.378 212.119L360.381 212.036C360.215 214.041 360.017 216.036 359.786 218.021L360.779 218.137C361.011 216.141 361.211 214.134 361.378 212.119ZM359.981 224.127L358.992 223.978C358.693 225.969 358.361 227.949 357.997 229.918L358.98 230.1C359.346 228.12 359.68 226.129 359.981 224.127ZM357.782 236.028L356.805 235.813C356.374 237.775 355.911 239.725 355.416 241.662L356.385 241.909C356.882 239.961 357.348 238.001 357.782 236.028ZM354.789 247.75L353.829 247.47C353.266 249.399 352.673 251.314 352.048 253.215L352.998 253.527C353.626 251.615 354.223 249.689 354.789 247.75ZM351.016 259.238L350.077 258.894C349.385 260.781 348.664 262.654 347.912 264.511L348.838 264.887C349.595 263.019 350.321 261.136 351.016 259.238ZM346.474 270.455L345.56 270.049C344.745 271.883 343.9 273.701 343.026 275.502L343.925 275.938C344.805 274.127 345.654 272.299 346.474 270.455ZM341.192 281.337L340.307 280.871C339.371 282.646 338.405 284.404 337.411 286.144L338.28 286.64C339.279 284.891 340.25 283.123 341.192 281.337ZM335.193 291.841L334.341 291.316C333.288 293.025 332.207 294.715 331.099 296.385L331.932 296.938C333.047 295.258 334.134 293.559 335.193 291.841ZM328.504 301.923L327.69 301.342C326.525 302.976 325.334 304.59 324.117 306.182L324.912 306.79C326.136 305.188 327.333 303.566 328.504 301.923ZM321.16 311.535L320.386 310.901C319.116 312.454 317.82 313.985 316.499 315.494L317.252 316.153C318.579 314.636 319.882 313.096 321.16 311.535ZM313.192 320.638L312.462 319.955C311.092 321.419 309.697 322.861 308.279 324.279L308.986 324.986C310.412 323.56 311.814 322.111 313.192 320.638ZM304.638 329.192L303.955 328.462C302.491 329.832 301.004 331.178 299.494 332.499L300.153 333.252C301.671 331.923 303.166 330.57 304.638 329.192ZM295.535 337.16L294.901 336.386C293.35 337.655 291.777 338.899 290.182 340.117L290.79 340.912C292.393 339.687 293.974 338.436 295.535 337.16ZM285.923 344.504L285.342 343.69C283.71 344.853 282.057 345.99 280.385 347.099L280.938 347.932C282.619 346.817 284.281 345.674 285.923 344.504ZM275.841 351.193L275.316 350.341C273.611 351.392 271.887 352.416 270.144 353.411L270.64 354.28C272.392 353.279 274.126 352.25 275.841 351.193ZM265.337 357.192L264.871 356.307C263.098 357.242 261.308 358.149 259.502 359.026L259.938 359.925C261.755 359.044 263.555 358.132 265.337 357.192ZM254.455 362.474L254.049 361.56C252.219 362.374 250.373 363.158 248.511 363.912L248.887 364.838C250.759 364.081 252.615 363.292 254.455 362.474ZM243.238 367.016L242.894 366.077C241.015 366.764 239.122 367.422 237.215 368.048L237.527 368.998C239.445 368.368 241.349 367.707 243.238 367.016ZM231.75 370.789L231.47 369.829C229.547 370.389 227.611 370.919 225.662 371.416L225.909 372.385C227.869 371.885 229.816 371.352 231.75 370.789ZM220.028 373.782L219.814 372.805C217.86 373.234 215.895 373.632 213.919 373.997L214.1 374.98C216.088 374.613 218.064 374.213 220.028 373.782ZM208.127 375.981L207.978 374.992C206.003 375.289 204.017 375.554 202.021 375.786L202.137 376.779C204.144 376.546 206.141 376.279 208.127 375.981ZM196.119 377.378L196.037 376.381C194.041 376.546 192.037 376.678 190.024 376.778L190.073 377.777C192.097 377.677 194.113 377.543 196.119 377.378ZM184.036 377.975L184.02 376.975C183.015 376.992 182.009 377 181 377V378C182.014 378 183.026 377.992 184.036 377.975ZM177.964 377.975L177.98 376.975C175.971 376.942 173.969 376.876 171.977 376.778L171.927 377.777C173.931 377.875 175.943 377.942 177.964 377.975ZM165.881 377.378L165.964 376.381C163.959 376.215 161.964 376.017 159.979 375.786L159.863 376.779C161.859 377.011 163.866 377.211 165.881 377.378ZM153.873 375.981L154.022 374.992C152.031 374.693 150.051 374.361 148.082 373.997L147.9 374.98C149.88 375.346 151.871 375.68 153.873 375.981ZM141.972 373.782L142.187 372.805C140.225 372.374 138.275 371.911 136.338 371.416L136.091 372.385C138.039 372.882 139.999 373.348 141.972 373.782ZM130.25 370.789L130.53 369.829C128.601 369.266 126.686 368.673 124.785 368.048L124.473 368.998C126.385 369.626 128.311 370.223 130.25 370.789ZM118.762 367.016L119.106 366.077C117.219 365.385 115.346 364.664 113.489 363.912L113.113 364.838C114.981 365.595 116.864 366.321 118.762 367.016ZM107.545 362.474L107.951 361.56C106.117 360.745 104.299 359.9 102.498 359.026L102.062 359.925C103.873 360.805 105.701 361.654 107.545 362.474ZM96.6628 357.192L97.1294 356.307C95.3537 355.371 93.5956 354.405 91.8557 353.411L91.3598 354.28C93.1094 355.279 94.8772 356.25 96.6628 357.192ZM86.1589 351.193L86.6836 350.341C84.975 349.288 83.2854 348.207 81.6153 347.099L81.0624 347.932C82.7418 349.047 84.4408 350.134 86.1589 351.193ZM76.0774 344.504L76.6577 343.69C75.0238 342.525 73.4102 341.334 71.8175 340.117L71.2104 340.912C72.8119 342.136 74.4345 343.333 76.0774 344.504ZM66.4653 337.16L67.0986 336.386C65.5458 335.116 64.0146 333.82 62.5057 332.499L61.8471 333.252C63.3643 334.579 64.904 335.882 66.4653 337.16ZM57.3618 329.192L58.045 328.462C56.5805 327.092 55.1389 325.697 53.7208 324.279L53.0137 324.986C54.4396 326.412 55.8892 327.814 57.3618 329.192ZM48.8076 320.638L49.5378 319.955C48.1678 318.491 46.822 317.004 45.5009 315.494L44.7485 316.153C46.0768 317.671 47.43 319.166 48.8076 320.638ZM40.8401 311.535L41.6141 310.901C40.3446 309.35 39.1006 307.777 37.8826 306.182L37.088 306.79C38.3127 308.393 39.5636 309.974 40.8401 311.535ZM33.496 301.923L34.3104 301.342C33.1471 299.71 32.0104 298.057 30.9008 296.385L30.0676 296.938C31.1832 298.619 32.3263 300.281 33.496 301.923ZM26.8074 291.841L27.6587 291.316C26.6075 289.611 25.584 287.887 24.5887 286.144L23.7204 286.64C24.7212 288.392 25.7504 290.126 26.8074 291.841ZM20.8081 281.337L21.6926 280.871C20.7575 279.098 19.8512 277.308 18.9742 275.502L18.0746 275.938C18.9565 277.755 19.8679 279.555 20.8081 281.337ZM15.5258 270.455L16.4396 270.049C15.626 268.219 14.8421 266.373 14.0885 264.511L13.1616 264.887C13.9194 266.759 14.7077 268.615 15.5258 270.455ZM10.9844 259.238L11.9235 258.894C11.2357 257.015 10.5782 255.122 9.95185 253.215L9.00179 253.527C9.63169 255.445 10.2928 257.349 10.9844 259.238ZM7.21132 247.75L8.17135 247.47C7.61076 245.547 7.08139 243.611 6.58383 241.662L5.61491 241.909C6.11525 243.869 6.64759 245.816 7.21132 247.75ZM4.21844 236.028L5.19513 235.814C4.76586 233.86 4.3683 231.895 4.00304 229.919L3.01969 230.1C3.38699 232.088 3.78676 234.064 4.21844 236.028ZM2.01924 224.127L3.00813 223.978C2.71125 222.003 2.44647 220.017 2.21433 218.021L1.22102 218.137C1.45445 220.144 1.7207 222.141 2.01924 224.127ZM0.622474 212.119L1.61907 212.037C1.45407 210.041 1.32161 208.037 1.22222 206.024L0.223439 206.073C0.323372 208.097 0.456562 210.113 0.622474 212.119ZM0.0249563 200.036L1.02482 200.02C1.0083 199.015 1 198.009 1 197H0C0 198.014 0.00834037 199.026 0.0249563 200.036ZM361.777 187.927C361.677 185.903 361.543 183.887 361.378 181.881L360.381 181.963C360.546 183.959 360.678 185.963 360.778 187.976L361.777 187.927ZM360.779 175.863L359.786 175.979C359.554 173.983 359.289 171.997 358.992 170.022L359.981 169.873C360.279 171.859 360.546 173.856 360.779 175.863ZM358.98 163.9L357.997 164.081C357.632 162.105 357.234 160.14 356.805 158.186L357.782 157.972C358.213 159.936 358.613 161.912 358.98 163.9ZM356.385 152.091L355.416 152.338C354.919 150.389 354.389 148.453 353.829 146.53L354.789 146.25C355.352 148.184 355.885 150.131 356.385 152.091ZM352.998 140.473L352.048 140.785C351.422 138.878 350.764 136.985 350.077 135.106L351.016 134.762C351.707 136.651 352.368 138.555 352.998 140.473ZM348.838 129.113L347.912 129.489C347.158 127.627 346.374 125.781 345.56 123.951L346.474 123.545C347.292 125.385 348.081 127.241 348.838 129.113ZM343.925 118.062L343.026 118.498C342.149 116.692 341.242 114.902 340.307 113.129L341.192 112.663C342.132 114.445 343.044 116.245 343.925 118.062ZM338.28 107.36L337.411 107.856C336.416 106.113 335.392 104.389 334.341 102.684L335.193 102.159C336.25 103.874 337.279 105.608 338.28 107.36ZM331.932 97.0624L331.099 97.6153C329.99 95.9429 328.853 94.2902 327.69 92.6577L328.504 92.0774C329.674 93.7189 330.817 95.3808 331.932 97.0624ZM324.912 87.2104L324.117 87.8175C322.899 86.2234 321.655 84.6502 320.386 83.0986L321.16 82.4653C322.436 84.0255 323.687 85.6074 324.912 87.2104ZM317.252 77.8471L316.499 78.5057C315.178 76.9963 313.832 75.5092 312.462 74.045L313.192 73.3618C314.57 74.8341 315.923 76.3294 317.252 77.8471ZM308.986 69.0137C307.56 67.5878 306.111 66.1855 304.638 64.8076L303.955 65.5378C305.419 66.9082 306.861 68.3027 308.279 69.7208L308.986 69.0137ZM300.153 60.7485L299.494 61.5009C297.985 60.1803 296.454 58.8845 294.901 57.6141L295.535 56.8401C297.096 58.1175 298.636 59.4205 300.153 60.7485ZM290.79 53.088L290.182 53.8826C288.59 52.6656 286.976 51.4747 285.342 50.3104L285.923 49.496C287.566 50.6668 289.188 51.8643 290.79 53.088ZM280.938 46.0675L280.385 46.9008C278.715 45.7928 277.025 44.7119 275.316 43.6587L275.841 42.8074C277.559 43.8664 279.258 44.9533 280.938 46.0675ZM270.64 39.7204C268.891 38.7211 267.123 37.7501 265.337 36.8081L264.871 37.6926C266.646 38.6293 268.404 39.5949 270.144 40.5887L270.64 39.7204ZM259.938 34.0746L259.502 34.9742C257.701 34.1 255.883 33.2549 254.049 32.4396L254.455 31.5258C256.299 32.3457 258.127 33.1955 259.938 34.0746ZM248.887 29.1615L248.511 30.0885C246.654 29.3365 244.781 28.6146 242.894 27.9234L243.238 26.9844C245.136 27.6795 247.019 28.4054 248.887 29.1615ZM237.527 25.0018L237.215 25.9518C235.314 25.3273 233.399 24.7336 231.47 24.1713L231.75 23.2113C233.689 23.7767 235.615 24.3737 237.527 25.0018ZM225.909 21.6149L225.662 22.5838C223.725 22.0893 221.775 21.6262 219.813 21.1951L220.028 20.2184C222.001 20.6519 223.961 21.1176 225.909 21.6149ZM214.1 19.0197L213.918 20.003C211.949 19.6392 209.969 19.3073 207.978 19.0081L208.127 18.0192C210.129 18.3201 212.12 18.6538 214.1 19.0197ZM202.137 17.221L202.021 18.2143C200.036 17.9834 198.041 17.7848 196.036 17.6191L196.119 16.6225C198.134 16.7891 200.141 16.9888 202.137 17.221ZM190.073 16.2234L190.023 17.2222C188.031 17.1238 186.029 17.0579 184.02 17.0248L184.036 16.025C186.057 16.0582 188.069 16.1245 190.073 16.2234ZM181 16C179.986 16 178.974 16.0083 177.964 16.025L177.98 17.0248C178.985 17.0083 179.991 17 181 17V16ZM171.927 16.2234C169.903 16.3234 167.887 16.4566 165.881 16.6225L165.963 17.6191C167.959 17.4541 169.963 17.3216 171.976 17.2222L171.927 16.2234ZM159.863 17.221L159.979 18.2143C157.983 18.4465 155.997 18.7113 154.022 19.0081L153.873 18.0192C155.859 17.7207 157.856 17.4544 159.863 17.221ZM147.9 19.0197L148.081 20.003C146.105 20.3683 144.14 20.7659 142.186 21.1951L141.972 20.2184C143.936 19.7868 145.912 19.387 147.9 19.0197ZM136.091 21.6149L136.338 22.5838C134.389 23.0814 132.453 23.6108 130.53 24.1714L130.25 23.2113C132.184 22.6476 134.131 22.1153 136.091 21.6149ZM124.473 25.0018L124.785 25.9519C122.878 26.5782 120.985 27.2357 119.106 27.9235L118.762 26.9844C120.651 26.2928 122.555 25.6317 124.473 25.0018ZM113.113 29.1616L113.489 30.0885C111.627 30.8421 109.781 31.626 107.951 32.4396L107.545 31.5258C109.385 30.7077 111.241 29.9194 113.113 29.1616ZM102.062 34.0746L102.498 34.9742C100.692 35.8512 98.9017 36.7575 97.1293 37.6926L96.6627 36.8081C98.445 35.8679 100.245 34.9565 102.062 34.0746ZM91.3597 39.7204C89.6076 40.7212 87.8737 41.7504 86.1589 42.8074L86.6836 43.6587C88.389 42.6075 90.1132 41.584 91.8557 40.5887L91.3597 39.7204ZM81.0624 46.0676L81.6153 46.9008C79.9429 48.0104 78.2902 49.1471 76.6577 50.3104L76.0774 49.496C77.7189 48.3263 79.3808 47.1832 81.0624 46.0676ZM71.2104 53.088L71.8175 53.8826C70.2234 55.1006 68.6502 56.3446 67.0986 57.6141L66.4653 56.8401C68.0255 55.5636 69.6074 54.3127 71.2104 53.088ZM61.8471 60.7484L62.5057 61.5009C60.9963 62.822 59.5092 64.1678 58.045 65.5378L57.3618 64.8076C58.8341 63.43 60.3294 62.0768 61.8471 60.7484ZM53.0137 69.0137C51.5878 70.4396 50.1855 71.8892 48.8076 73.3618L49.5378 74.045C50.9082 72.5805 52.3027 71.1389 53.7208 69.7208L53.0137 69.0137ZM44.7484 77.8471L45.5009 78.5057C44.1803 80.0146 42.8845 81.5458 41.6141 83.0986L40.8401 82.4653C42.1175 80.904 43.4205 79.3643 44.7484 77.8471ZM37.0879 87.2104L37.8826 87.8175C36.6656 89.4102 35.4747 91.0238 34.3104 92.6577L33.496 92.0774C34.6668 90.4345 35.8643 88.8119 37.0879 87.2104ZM30.0675 97.0624L30.9008 97.6153C29.7928 99.2854 28.7119 100.975 27.6587 102.684L26.8074 102.159C27.8664 100.441 28.9533 98.7418 30.0675 97.0624ZM23.7204 107.36L24.5887 107.856C23.5949 109.596 22.6293 111.354 21.6926 113.129L20.8081 112.663C21.7501 110.877 22.7211 109.109 23.7204 107.36ZM18.0746 118.062L18.9742 118.498C18.1 120.299 17.2549 122.117 16.4396 123.951L15.5258 123.545C16.3457 121.701 17.1955 119.873 18.0746 118.062ZM13.1615 129.113L14.0885 129.489C13.3365 131.346 12.6146 133.219 11.9234 135.106L10.9844 134.762C11.6794 132.864 12.4054 130.981 13.1615 129.113ZM9.00176 140.473L9.95183 140.785C9.32731 142.686 8.73361 144.601 8.17133 146.53L7.21129 146.25C7.77672 144.311 8.37375 142.385 9.00176 140.473ZM5.61488 152.091L6.58381 152.338C6.0893 154.275 5.6262 156.225 5.19511 158.187L4.21841 157.972C4.65192 155.999 5.1176 154.039 5.61488 152.091ZM3.01967 163.9L4.00302 164.082C3.63915 166.051 3.30733 168.031 3.00812 170.022L2.01922 169.873C2.3201 167.871 2.65377 165.88 3.01967 163.9ZM1.22101 175.863L2.21431 175.979C1.98342 177.964 1.78482 179.959 1.61906 181.964L0.622466 181.881C0.789139 179.866 0.988835 177.859 1.22101 175.863ZM0.223435 187.927L1.22222 187.977C1.12384 189.969 1.05787 191.971 1.02482 193.98L0.0249547 193.964C0.0581856 191.943 0.124518 189.931 0.223435 187.927Z" fill="white"/>
<path d="M30 0L31.6996 10.3183C33.2197 19.5471 40.4529 26.7803 49.6817 28.3004L60 30L49.6817 31.6996C40.4529 33.2197 33.2197 40.4529 31.6996 49.6817L30 60L28.3004 49.6817C26.7803 40.4529 19.5471 33.2197 10.3183 31.6996L0 30L10.3183 28.3004C19.5471 26.7803 26.7803 19.5471 28.3004 10.3183L30 0Z" fill="#FF4066"/>
</svg>
